<svg width="160" height="120" viewBox="0 0 160 120" fill="none" xmlns="http://www.w3.org/2000/svg">
<rect x="-40" y="-80" width="200" height="200" rx="100" fill="black" fill-opacity="0.4"/>
<path d="M22.3994 61.0596L29.7822 60.2949C29.9932 61.9648 30.6172 63.292 31.6543 64.2764C32.6914 65.2432 33.8867 65.7266 35.2402 65.7266C36.7871 65.7266 38.0967 65.1025 39.1689 63.8545C40.2412 62.5889 40.7773 60.6904 40.7773 58.1592C40.7773 55.7861 40.2412 54.0107 39.1689 52.833C38.1143 51.6377 36.7344 51.04 35.0293 51.04C32.9023 51.04 30.9951 51.9805 29.3076 53.8613L23.2959 52.9912L27.0928 32.873H46.6836V39.8076H32.709L31.5488 46.373C33.2012 45.5469 34.8887 45.1338 36.6113 45.1338C39.8984 45.1338 42.6846 46.3291 44.9697 48.7197C47.2549 51.1104 48.3975 54.2129 48.3975 58.0273C48.3975 61.209 47.4746 64.0479 45.6289 66.5439C43.1152 69.9541 39.626 71.6592 35.1611 71.6592C31.5928 71.6592 28.6836 70.7012 26.4336 68.7852C24.1836 66.8691 22.8389 64.2939 22.3994 61.0596ZM65.357 32.1875C69.1011 32.1875 72.0279 33.5234 74.1372 36.1953C76.6509 39.3594 77.9077 44.6064 77.9077 51.9365C77.9077 59.249 76.6421 64.5049 74.1109 67.7041C72.0191 70.3408 69.1011 71.6592 65.357 71.6592C61.5952 71.6592 58.563 70.2178 56.2603 67.335C53.9575 64.4346 52.8062 59.2754 52.8062 51.8574C52.8062 44.5801 54.0718 39.3418 56.603 36.1426C58.6948 33.5059 61.6128 32.1875 65.357 32.1875ZM65.357 38.3311C64.4605 38.3311 63.6607 38.6211 62.9575 39.2012C62.2544 39.7637 61.7095 40.7832 61.3228 42.2598C60.813 44.1758 60.5581 47.4014 60.5581 51.9365C60.5581 56.4717 60.7866 59.5918 61.2437 61.2969C61.7007 62.9844 62.272 64.1094 62.9575 64.6719C63.6607 65.2344 64.4605 65.5156 65.357 65.5156C66.2534 65.5156 67.0532 65.2344 67.7564 64.6719C68.4595 64.0918 69.0044 63.0635 69.3911 61.5869C69.9009 59.6885 70.1558 56.4717 70.1558 51.9365C70.1558 47.4014 69.9273 44.29 69.4702 42.6025C69.0132 40.8975 68.4331 39.7637 67.73 39.2012C67.0445 38.6211 66.2534 38.3311 65.357 38.3311Z" fill="white"/>
<path d="M86.9014 36.665C86.9014 35.5332 87.1271 34.6673 87.5786 34.0674C88.0301 33.4674 88.5837 33.1675 89.2393 33.1675C89.9196 33.1675 90.4948 33.4674 90.9648 34.0674C91.4349 34.6673 91.6699 35.5641 91.6699 36.7578C91.6699 37.9268 91.4349 38.8205 90.9648 39.439C90.4948 40.0513 89.9258 40.3574 89.2578 40.3574C88.6022 40.3574 88.0456 40.0544 87.5879 39.4482C87.1302 38.8359 86.9014 37.9082 86.9014 36.665ZM89.2856 34.3179C88.9455 34.3179 88.661 34.5003 88.4321 34.8652C88.2095 35.224 88.0981 35.8579 88.0981 36.7671C88.0981 37.6763 88.2095 38.3102 88.4321 38.6689C88.661 39.0277 88.9548 39.207 89.3135 39.207C89.6413 39.207 89.9165 39.0277 90.1392 38.6689C90.368 38.304 90.4824 37.6701 90.4824 36.7671C90.4824 35.8641 90.368 35.2301 90.1392 34.8652C89.9103 34.5003 89.6258 34.3179 89.2856 34.3179ZM89.2856 47.501L95.3901 33.1675H96.5034L90.4268 47.501H89.2856ZM94.1191 43.8086C94.1191 42.6768 94.3449 41.8109 94.7964 41.2109C95.2479 40.611 95.7983 40.311 96.4478 40.311C97.1343 40.311 97.7126 40.611 98.1826 41.2109C98.6527 41.8047 98.8877 42.6984 98.8877 43.8921C98.8877 45.0672 98.6496 45.964 98.1733 46.5825C97.7033 47.1948 97.1374 47.501 96.4756 47.501C95.82 47.501 95.2633 47.1948 94.8057 46.5825C94.348 45.9702 94.1191 45.0456 94.1191 43.8086ZM96.5034 41.4614C96.1571 41.4614 95.8695 41.6439 95.6406 42.0088C95.418 42.3675 95.3066 43.0015 95.3066 43.9106C95.3066 44.8198 95.4211 45.4538 95.6499 45.8125C95.8787 46.1712 96.1725 46.3506 96.5312 46.3506C96.8529 46.3506 97.125 46.1681 97.3477 45.8032C97.5765 45.4383 97.6909 44.8044 97.6909 43.9014C97.6909 42.9984 97.5765 42.3675 97.3477 42.0088C97.125 41.6439 96.8436 41.4614 96.5034 41.4614ZM86.8179 63.376C86.8179 61.0566 87.3281 59.2754 88.3486 58.0322C89.3691 56.7829 90.6401 56.1582 92.1616 56.1582C93.145 56.1582 94.0418 56.4365 94.8521 56.9932C95.6623 57.5498 96.3024 58.36 96.7725 59.4238C97.2487 60.4814 97.4868 61.7432 97.4868 63.209C97.4868 65.2253 97.0291 66.8674 96.1138 68.1353C95.1056 69.533 93.7852 70.2319 92.1523 70.2319C90.5072 70.2319 89.1836 69.5145 88.1816 68.0796C87.2725 66.7808 86.8179 65.2129 86.8179 63.376ZM88.3394 63.4038C88.3394 65.0799 88.7074 66.3818 89.4434 67.3096C90.1855 68.2311 91.0854 68.6919 92.1431 68.6919C93.2254 68.6919 94.1315 68.2249 94.8613 67.291C95.5973 66.3571 95.9653 64.984 95.9653 63.1719C95.9653 62.0029 95.7767 60.9577 95.3994 60.0361C95.1087 59.3311 94.6696 58.7682 94.082 58.3477C93.5007 57.9209 92.8636 57.7075 92.1709 57.7075C91.0576 57.7075 90.1392 58.1714 89.4155 59.0991C88.6981 60.0269 88.3394 61.4618 88.3394 63.4038ZM99.9522 70V56.3994H107.476V58.0044H101.427V62.2163H106.66V63.8213H101.427V70H99.9522ZM109.951 70V56.3994H117.475V58.0044H111.426V62.2163H116.658V63.8213H111.426V70H109.951Z" fill="white"/>
</svg>
