<svg width="46" height="2" viewBox="0 0 46 2" fill="none" xmlns="http://www.w3.org/2000/svg">
<path d="M28.4219 0.596689C30.7402 0.588356 32.9241 0.574884 34.9736 0.556273C37.023 0.537662 38.8877 0.514745 40.5676 0.487523V0.35669H5.2897V0.487523C6.96961 0.514745 8.8343 0.537662 10.8838 0.556273C12.9333 0.574884 15.1171 0.588356 17.4354 0.596689C18.0066 0.580578 18.7793 0.567801 19.7537 0.558356C20.728 0.548912 21.7863 0.544189 22.9287 0.544189C24.071 0.544189 25.1293 0.548912 26.1037 0.558356C27.078 0.567801 27.8508 0.580578 28.4219 0.596689ZM28.9259 0.680023C28.5227 0.701134 27.7668 0.718495 26.6581 0.732106C25.5493 0.745717 24.3062 0.752523 22.9287 0.752523C21.5511 0.752523 20.308 0.745717 19.1993 0.732106C18.0906 0.718495 17.3346 0.701134 16.9314 0.680023C12.6981 0.666134 8.8175 0.638078 5.2897 0.595856V1.02336H40.5676V0.595856C37.0398 0.638078 33.1593 0.666134 28.9259 0.680023ZM2.76985 0.273356H43.0875C43.793 0.273356 44.3894 0.277384 44.8766 0.285439C45.3638 0.293495 45.6073 0.303356 45.6073 0.315023V1.06502C45.6073 1.07669 45.3638 1.08655 44.8766 1.09461C44.3894 1.10266 43.793 1.10669 43.0875 1.10669H2.76985C2.06429 1.10669 1.46793 1.10266 0.980757 1.09461C0.493586 1.08655 0.25 1.07669 0.25 1.06502V0.315023C0.25 0.303356 0.493586 0.293495 0.980757 0.285439C1.46793 0.277384 2.06429 0.273356 2.76985 0.273356Z" fill="#64B496"/>
</svg>
