<svg width="35" height="35" viewBox="0 0 35 35" fill="none" xmlns="http://www.w3.org/2000/svg">
<rect x="0.5" y="0.5" width="34" height="34" rx="17" fill="#F7F7F8"/>
<rect x="0.5" y="0.5" width="34" height="34" rx="17" stroke="#E9E9E9"/>
<g clip-path="url(#clip0_8330_1003)">
<path d="M14.1667 14.2767V12.9433C14.1667 12.3389 14.3156 11.7811 14.6133 11.27C14.9111 10.7589 15.3156 10.3544 15.8267 10.0567C16.3378 9.75887 16.8956 9.60999 17.5 9.60999C18.1044 9.60999 18.6622 9.75887 19.1733 10.0567C19.6844 10.3544 20.0889 10.7589 20.3867 11.27C20.6844 11.7811 20.8333 12.3389 20.8333 12.9433V14.2767H22.8333C23.02 14.2767 23.1778 14.3411 23.3067 14.47C23.4356 14.5989 23.5 14.7567 23.5 14.9433V22.9433C23.5 23.13 23.4356 23.2878 23.3067 23.4167C23.1778 23.5455 23.02 23.61 22.8333 23.61H12.1667C11.98 23.61 11.8222 23.5455 11.6933 23.4167C11.5644 23.2878 11.5 23.13 11.5 22.9433V14.9433C11.5 14.7567 11.5644 14.5989 11.6933 14.47C11.8222 14.3411 11.98 14.2767 12.1667 14.2767H14.1667ZM14.1667 15.61H12.8333V22.2767H22.1667V15.61H20.8333V16.9433H19.5V15.61H15.5V16.9433H14.1667V15.61ZM15.5 14.2767H19.5V12.9433C19.5 12.5789 19.4111 12.2433 19.2333 11.9367C19.0556 11.63 18.8133 11.3878 18.5067 11.21C18.2 11.0322 17.8644 10.9433 17.5 10.9433C17.1356 10.9433 16.8 11.0322 16.4933 11.21C16.1867 11.3878 15.9444 11.63 15.7667 11.9367C15.5889 12.2433 15.5 12.5789 15.5 12.9433V14.2767Z" fill="#F53E32"/>
</g>
<defs>
<clipPath id="clip0_8330_1003">
<rect width="16.48" height="16" fill="white" transform="matrix(1 0 0 -1 11.5 24.61)"/>
</clipPath>
</defs>
</svg>
